<?xml version="1.0" encoding="UTF-8" standalone="no"?>
<svg
   enable-background="new 0 0 128 128"
   id="Слой_1"
   version="1.1"
   viewBox="0 0 128 128"
   xml:space="preserve"
   sodipodi:docname="Sigima-lib.svg"
   inkscape:version="1.4.2 (f4327f4, 2025-05-13)"
   xmlns:inkscape="http://www.inkscape.org/namespaces/inkscape"
   xmlns:sodipodi="http://sodipodi.sourceforge.net/DTD/sodipodi-0.dtd"
   xmlns:xlink="http://www.w3.org/1999/xlink"
   xmlns="http://www.w3.org/2000/svg"
   xmlns:svg="http://www.w3.org/2000/svg"><defs
     id="defs21"><linearGradient
   x1="26.648937"
   y1="20.603781"
   x2="135.66525"
   y2="114.39767"
   id="linearGradient1478"
   xlink:href="#linearGradient4689"
   gradientUnits="userSpaceOnUse"
   gradientTransform="matrix(0.562541,0,0,0.567972,-9.399749,-5.305317)" /><linearGradient
   id="linearGradient4689"><stop
     style="stop-color:#5a9fd4;stop-opacity:1"
     offset="0"
     id="stop4691" /><stop
     style="stop-color:#306998;stop-opacity:1"
     offset="1"
     id="stop4693" /></linearGradient><linearGradient
   x1="150.96111"
   y1="192.35176"
   x2="112.03144"
   y2="137.27299"
   id="linearGradient1475"
   xlink:href="#linearGradient4671"
   gradientUnits="userSpaceOnUse"
   gradientTransform="matrix(0.562541,0,0,0.567972,-9.399749,-5.305317)" /><linearGradient
   id="linearGradient4671"><stop
     style="stop-color:#ffd43b;stop-opacity:1"
     offset="0"
     id="stop4673" /><stop
     style="stop-color:#ffe873;stop-opacity:1"
     offset="1"
     id="stop4675" /></linearGradient><linearGradient
   x1="26.648937"
   y1="20.603781"
   x2="135.66525"
   y2="114.39767"
   id="linearGradient1478-9"
   xlink:href="#linearGradient4689"
   gradientUnits="userSpaceOnUse"
   gradientTransform="matrix(0.562541,0,0,0.567972,-9.399749,-5.305317)" /><linearGradient
   x1="150.96111"
   y1="192.35176"
   x2="112.03144"
   y2="137.27299"
   id="linearGradient1475-1"
   xlink:href="#linearGradient4671"
   gradientUnits="userSpaceOnUse"
   gradientTransform="matrix(0.562541,0,0,0.567972,-9.399749,-5.305317)" />
	
	
	
	
	
	
	
	
<linearGradient
   inkscape:collect="always"
   xlink:href="#linearGradient4"
   id="linearGradient5"
   x1="106.11724"
   y1="88.474579"
   x2="196.76912"
   y2="88.474579"
   gradientUnits="userSpaceOnUse"
   gradientTransform="matrix(0.80576583,0,0,-1.4066843,71.230159,728.07978)" /><linearGradient
   id="linearGradient4"
   inkscape:collect="always"><stop
     style="stop-color:#264e97;stop-opacity:1;"
     offset="0"
     id="stop4" /><stop
     style="stop-color:#264e97;stop-opacity:0;"
     offset="1"
     id="stop5" /></linearGradient><linearGradient
   inkscape:collect="always"
   xlink:href="#linearGradient3"
   id="linearGradient6"
   x1="612.01978"
   y1="-615.69073"
   x2="754.51978"
   y2="-615.69073"
   gradientUnits="userSpaceOnUse"
   gradientTransform="matrix(0.60311771,0,0,0.60311726,-141.39531,-233.0065)" /><linearGradient
   id="linearGradient3"
   inkscape:collect="always"><stop
     style="stop-color:#264e97;stop-opacity:0;"
     offset="0"
     id="stop6" /><stop
     style="stop-color:#264e97;stop-opacity:1;"
     offset="1"
     id="stop3" /></linearGradient></defs><sodipodi:namedview
     id="namedview21"
     pagecolor="#ffffff"
     bordercolor="#000000"
     borderopacity="0.25"
     inkscape:showpageshadow="2"
     inkscape:pageopacity="0.0"
     inkscape:pagecheckerboard="true"
     inkscape:deskcolor="#d1d1d1"
     inkscape:zoom="6.3515625"
     inkscape:cx="63.921279"
     inkscape:cy="63.842558"
     inkscape:window-width="1920"
     inkscape:window-height="1009"
     inkscape:window-x="-8"
     inkscape:window-y="-8"
     inkscape:window-maximized="1"
     inkscape:current-layer="Слой_1" /><polygon
     points="88.53,17.58 71.7,10.79 28.18,28.37 45,40.55 "
     style="fill:#d3a47d;fill-rule:nonzero;stroke:none;stroke-width:1;stroke-linecap:butt;stroke-linejoin:miter;stroke-miterlimit:10;stroke-dasharray:none"
     id="polygon9036"
     transform="matrix(1.2219761,0,0,1.2219761,9.0110755,9.0110755)" /><polygon
     points="61.82,6.8 45,0 1.47,17.58 18.3,29.06 "
     style="fill:#d3a47d;fill-rule:nonzero;stroke:none;stroke-width:1;stroke-linecap:butt;stroke-linejoin:miter;stroke-miterlimit:10;stroke-dasharray:none"
     id="polygon9038"
     transform="matrix(1.2219761,0,0,1.2219761,9.0110755,9.0110755)" /><path
     d="M 31.36835,38.804075 10.811046,30.498303 v 25.286352 41.71582 L 64,118.98892 c 2.605253,-21.916137 2.511161,-44.264858 0,-67.002167 l -20.557304,-8.30455 z"
     style="fill:#e2ae83;fill-rule:nonzero;stroke:none;stroke-width:1.22198;stroke-linecap:butt;stroke-linejoin:miter;stroke-miterlimit:10;stroke-dasharray:none"
     stroke-linecap="round"
     id="path9040" /><polyline
     points="45,35.17 45,90 88.53,72.42 88.53,38.28 88.53,17.58 45,35.17 "
     style="fill:#aa7b5c;fill-rule:nonzero;stroke:none;stroke-width:1;stroke-linecap:butt;stroke-linejoin:miter;stroke-miterlimit:10;stroke-dasharray:none"
     id="polyline9042"
     transform="matrix(1.2219761,0,0,1.2219761,9.0110755,9.0110755)" /><polygon
     points="71.7,10.79 61.82,6.8 18.3,24.38 18.3,47.33 28.18,51.32 28.18,28.37 "
     style="fill:#ffd2a6;fill-rule:nonzero;stroke:none;stroke-width:1;stroke-linecap:butt;stroke-linejoin:miter;stroke-miterlimit:10;stroke-dasharray:none"
     id="polygon9044"
     transform="matrix(1.2219761,0,0,1.2219761,9.0110755,9.0110755)" /><g
     id="g2"
     transform="matrix(0.27562924,-0.11782886,0,0.27562924,74.111015,65.409869)"><path
       id="path1948"
       style="fill:url(#linearGradient1478);fill-opacity:1"
       d="m 60.510156,6.3979729 c -4.583653,0.021298 -8.960939,0.4122177 -12.8125,1.09375 C 36.35144,9.4962267 34.291407,13.691825 34.291406,21.429223 v 10.21875 h 26.8125 v 3.40625 h -26.8125 -10.0625 c -7.792459,0 -14.6157592,4.683717 -16.7500002,13.59375 -2.46182,10.212966 -2.5710151,16.586023 0,27.25 1.9059283,7.937852 6.4575432,13.593748 14.2500002,13.59375 h 9.21875 v -12.25 c 0,-8.849902 7.657144,-16.656248 16.75,-16.65625 h 26.78125 c 7.454951,0 13.406253,-6.138164 13.40625,-13.625 v -25.53125 c 0,-7.266339 -6.12998,-12.7247775 -13.40625,-13.9375001 -4.605987,-0.7667253 -9.385097,-1.1150483 -13.96875,-1.09375 z m -14.5,8.2187501 c 2.769547,0 5.03125,2.298646 5.03125,5.125 -2e-6,2.816336 -2.261703,5.09375 -5.03125,5.09375 -2.779476,-1e-6 -5.03125,-2.277415 -5.03125,-5.09375 -1e-6,-2.826353 2.251774,-5.125 5.03125,-5.125 z" /><path
       id="path1950"
       style="fill:url(#linearGradient1475);fill-opacity:1"
       d="m 91.228906,35.054223 v 11.90625 c 0,9.230755 -7.825895,16.999999 -16.75,17 h -26.78125 c -7.335833,0 -13.406249,6.278483 -13.40625,13.625 v 25.531247 c 0,7.26634 6.318588,11.54032 13.40625,13.625 8.487331,2.49561 16.626237,2.94663 26.78125,0 6.750155,-1.95439 13.406253,-5.88761 13.40625,-13.625 V 92.897973 h -26.78125 v -3.40625 h 26.78125 13.406254 c 7.79246,0 10.69625,-5.435408 13.40624,-13.59375 2.79933,-8.398886 2.68022,-16.475776 0,-27.25 -1.92578,-7.757441 -5.60387,-13.59375 -13.40624,-13.59375 z m -15.0625,64.65625 c 2.779478,3e-6 5.03125,2.277417 5.03125,5.093747 -2e-6,2.82635 -2.251775,5.125 -5.03125,5.125 -2.76955,0 -5.03125,-2.29865 -5.03125,-5.125 2e-6,-2.81633 2.261697,-5.093747 5.03125,-5.093747 z" /></g><g
     id="g1"
     transform="matrix(0.29112024,0.12358426,0,-0.29112024,-31.043598,223.15561)"><path
       d="m 157.49157,603.62401 c 5.96104,48.59776 11.92211,48.59776 17.88316,0 5.96105,-48.59778 11.92211,-48.59778 17.88317,0 5.96103,48.59776 11.92209,48.59776 17.88314,0 5.96104,-48.59778 11.9221,-48.59778 17.88317,0"
       stroke="url(#grad)"
       stroke-width="1.91844"
       fill="none"
       id="path2"
       style="fill:none;stroke:url(#linearGradient5);stroke-width:9.38799;stroke-linecap:square;stroke-linejoin:round;stroke-dasharray:none;stroke-opacity:1"
       sodipodi:nodetypes="csssc" /><rect
       style="fill:none;stroke:url(#linearGradient6);stroke-width:19.6238;stroke-linecap:round;stroke-linejoin:round;stroke-dasharray:none;paint-order:stroke fill markers"
       id="rect1"
       width="59.852016"
       height="59.851994"
       x="240.77078"
       y="-634.26611"
       transform="scale(1,-1)" /><text
       xml:space="preserve"
       style="font-style:normal;font-weight:normal;font-size:205.681px;line-height:0.85;font-family:sans-serif;text-align:start;letter-spacing:0px;word-spacing:0px;text-anchor:start;fill:#264e97;fill-opacity:1;stroke:#ffffff;stroke-width:1.86936;stroke-dasharray:none;stroke-opacity:1"
       x="187.07069"
       y="-530.14197"
       id="text5581-3-0"
       transform="scale(1,-1)"><tspan
         sodipodi:role="line"
         style="font-style:normal;font-variant:normal;font-weight:normal;font-stretch:normal;font-size:205.681px;font-family:'Century Gothic';-inkscape-font-specification:'Century Gothic';text-align:start;text-anchor:start;fill:#264e97;fill-opacity:1;stroke:#ffffff;stroke-width:1.86936;stroke-dasharray:none;stroke-opacity:1"
         x="187.07069"
         y="-530.14197"
         id="tspan1527-9">S</tspan></text></g></svg>
